<svg width="14" height="13" viewBox="0 0 14 13" fill="none" xmlns="http://www.w3.org/2000/svg">
<path fill-rule="evenodd" clip-rule="evenodd" d="M12.707 12.7071C12.5195 12.8946 12.2652 12.9999 12 12.9999C11.7349 12.9999 11.4806 12.8946 11.293 12.7071L6.29303 7.70708C6.10556 7.51955 6.00024 7.26525 6.00024 7.00008C6.00024 6.73492 6.10556 6.48061 6.29303 6.29308L11.293 1.29308C11.3853 1.19757 11.4956 1.12139 11.6176 1.06898C11.7396 1.01657 11.8709 0.988985 12.0036 0.987831C12.1364 0.986677 12.2681 1.01198 12.391 1.06226C12.5139 1.11254 12.6255 1.18679 12.7194 1.28069C12.8133 1.37458 12.8876 1.48623 12.9379 1.60913C12.9881 1.73202 13.0134 1.8637 13.0123 1.99648C13.0111 2.12926 12.9835 2.26048 12.9311 2.38249C12.8787 2.50449 12.8025 2.61483 12.707 2.70708L8.41403 7.00008L12.707 11.2931C12.8945 11.4806 12.9998 11.7349 12.9998 12.0001C12.9998 12.2652 12.8945 12.5196 12.707 12.7071ZM6.70703 12.7071C6.5195 12.8946 6.26519 12.9999 6.00003 12.9999C5.73487 12.9999 5.48056 12.8946 5.29303 12.7071L0.293031 7.70708C0.105559 7.51955 0.000244141 7.26525 0.000244141 7.00008C0.000244141 6.73492 0.105559 6.48061 0.293031 6.29308L5.29303 1.29308C5.48163 1.11092 5.73423 1.01013 5.99643 1.01241C6.25863 1.01469 6.50944 1.11985 6.69485 1.30526C6.88026 1.49067 6.98543 1.74148 6.9877 2.00368C6.98998 2.26588 6.88919 2.51848 6.70703 2.70708L2.41403 7.00008L6.70703 11.2931C6.8945 11.4806 6.99982 11.7349 6.99982 12.0001C6.99982 12.2652 6.8945 12.5196 6.70703 12.7071Z" fill="#1A2024"/>
</svg>
